<?xml version="1.0" standalone="no"?>
<!DOCTYPE svg PUBLIC "-//W3C//DTD SVG 1.1//EN"
  "http://www.w3.org/Graphics/SVG/1.1/DTD/svg11.dtd">
<svg width="190.87283325195312mm" height="13.013842582702633mm" viewBox="-96.43641662597656 12.493079185485836 190.87283325195312 13.013842582702633" xmlns="http://www.w3.org/2000/svg" version="1.1">
	<title>svgOutput</title>
	<desc>made with tinkercad</desc>
<path d="M 93.0199966430664 13.998391151428219 L 93.02007293701172 13.998582839965817 L 93.09500122070312 14.203666687011715 L 93.09779357910156 14.218229293823239 L 93.12041473388672 14.33600044250488 L 93.1390609741211 14.433073043823239 L 93.16376495361328 14.561733245849606 L 93.22952270507812 14.899950027465817 L 93.26412963867188 15.078528404235836 L 93.26499938964844 15.083028793334957 L 93.2963638305664 15.359999656677243 L 93.35166931152344 15.848333358764645 L 93.35176849365234 15.851018905639645 L 93.37198638916016 16.38400077819824 L 93.3949966430664 16.990619659423825 L 93.41819763183594 18.115505218505856 L 93.42471313476562 18.431999206542965 L 93.42584228515625 18.48672294616699 L 93.43627166748047 18.992696762084957 L 93.43641662597656 18.999999999999996 L 93.43187713623047 19.220233917236325 L 93.4270248413086 19.455999374389645 L 93.42536926269531 19.53618240356445 L 93.41819763183594 19.884494781494137 L 93.41803741455078 19.91264152526855 L 93.4136734008789 20.108188629150387 L 93.40599060058594 20.479999542236325 L 93.3949966430664 21.011785507202145 L 93.39146423339844 21.10183525085449 L 93.38756561279297 21.20133781433105 L 93.38715362548828 21.21183395385742 L 93.3761215209961 21.503999710083004 L 93.35166931152344 22.151666641235348 L 93.30912017822266 22.527999877929684 L 93.26624298095703 22.907266616821286 L 93.26499938964844 22.918247222900387 L 93.25898742675781 22.949291229248043 L 93.16390228271484 23.438814163208004 L 93.12789154052734 23.625831604003903 L 93.09689331054688 23.78684043884277 L 93.09500122070312 23.79668807983398 L 92.98684692382812 24.09463691711425 L 92.97233581542969 24.134618759155266 L 92.93499755859375 24.239646911621087 L 92.89962768554688 24.338571548461907 L 92.89700317382812 24.345928192138665 L 92.86589050292969 24.373054504394524 L 92.83366394042969 24.399930953979485 L 92.8209228515625 24.41178131103515 L 92.7205581665039 24.502197265624993 L 92.16000366210938 24.502702713012688 L 91.99547576904297 24.502851486206048 L 91.9919204711914 24.50285339355468 L 91.67749786376953 24.433000564575188 L 91.43141174316406 24.37820625305175 L 91.00012969970703 24.282009124755852 L 90.67384338378906 24.20930099487304 L 90.6462173461914 24.203182220458977 L 90.62338256835938 24.19805717468261 L 90.614013671875 24.195953369140618 L 90.45430755615234 24.160354614257805 L 90.44383239746094 24.158006668090813 L 90.42933654785156 24.154693603515618 L 90.39198303222656 24.146390914916985 L 90.11199951171875 24.084148406982415 L 89.95247650146484 24.048685073852532 L 89.90567016601562 24.03820610046386 L 89.83382415771484 23.552000045776364 L 89.77283477783203 23.139314651489254 L 89.68248748779297 22.527999877929684 L 89.62811279296875 22.160102844238278 L 89.62670135498047 22.1515998840332 L 89.62649536132812 22.14918708801269 L 89.62615203857422 22.145086288452145 L 89.5673828125 20.963438034057614 L 89.54361724853516 20.479999542236325 L 89.49327087402344 19.455999374389645 L 89.47111511230469 19.00534629821777 L 89.47088623046875 18.999999999999996 L 89.4713363647461 18.991521835327145 L 89.4713363647461 18.98220062255859 L 89.47322845458984 18.94400024414062 L 89.48429870605469 18.720199584960934 L 89.48731231689453 18.65684127807617 L 89.49485778808594 18.5054817199707 L 89.49491882324219 18.50422096252441 L 89.49501037597656 18.502510070800778 L 89.49851989746094 18.431999206542965 L 89.51688385009766 18.063774108886715 L 89.60014343261719 16.38400077819824 L 89.62623596191406 15.857681274414059 L 89.62670135498047 15.848400115966793 L 89.62724304199219 15.841906547546383 L 89.6279067993164 15.837429046630856 L 89.85054016113281 14.33600044250488 L 89.97429656982422 13.501381874084469 L 89.9749984741211 13.496623992919918 L 90.11199951171875 13.49658107757568 L 90.4040756225586 13.496491432189938 L 90.76708221435547 13.49707221984863 L 90.90007019042969 13.526673316955563 L 91.82325744628906 13.73216342926025 L 92.16000366210938 13.807250976562496 L 92.32521057128906 13.844090461730953 L 92.33133697509766 13.844965934753414 L 92.8360366821289 13.957296371459957 L 92.89471435546875 13.970009803771969 L 92.95928192138672 13.98519134521484 L 92.99688720703125 13.993507385253903 L 92.9981689453125 13.993791580200192 L 92.99855041503906 13.99387168884277 L 93.00148010253906 13.994513511657711 L 93.00752258300781 13.995847702026364 L 93.00833129882812 13.996012687683102 L 93.0199966430664 13.998391151428219 M 88.677001953125 13.498548507690426 L 88.8016586303711 14.33600044250488 L 89.02583312988281 15.841906547546383 L 89.02635192871094 15.848120689392086 L 89.02637481689453 15.848400115966793 L 89.02684020996094 15.857543945312496 L 89.02684020996094 15.857681274414059 L 89.05300903320312 16.38400077819824 L 89.13652801513672 18.063774108886715 L 89.15483856201172 18.431999206542965 L 89.17234802246094 18.784034729003903 L 89.17354583740234 18.80611419677734 L 89.1779556274414 18.89684677124023 L 89.18024444580078 18.94400024414062 L 89.18038177490234 18.946884155273434 L 89.18266296386719 18.990669250488278 L 89.18266296386719 18.999999999999996 L 89.18244171142578 19.00534629821777 L 89.16021728515625 19.455999374389645 L 89.1097183227539 20.479999542236325 L 89.08587646484375 20.963438034057614 L 89.02692413330078 22.145086288452145 L 89.02637481689453 22.1515998840332 L 89.02495574951172 22.160102844238278 L 88.97032165527344 22.527999877929684 L 88.87960815429688 23.138788223266598 L 88.84868621826172 23.34878540039062 L 88.81847381591797 23.552000045776364 L 88.81170654296875 23.597511291503903 L 88.7422866821289 24.064428329467766 L 88.06400299072266 24.182165145874016 L 86.22151184082031 24.501983642578118 L 86.01599884033203 24.50189018249511 L 84.41600036621094 24.50117111206054 L 84.33135223388672 23.9312629699707 L 84.27051544189453 23.52166938781738 L 84.21401977539062 23.138788223266598 L 84.12358093261719 22.527999877929684 L 84.0691146850586 22.160102844238278 L 84.06770324707031 22.1515998840332 L 84.0675048828125 22.14923286437988 L 84.06715393066406 22.145086288452145 L 84.01749420166016 21.145561218261715 L 84.01593017578125 21.11484336853027 L 84.00822448730469 20.963676452636715 L 83.98468780517578 20.479999542236325 L 83.98345947265625 20.45461845397949 L 83.96800231933594 20.1403694152832 L 83.93434143066406 19.455999374389645 L 83.92221069335938 19.209344863891598 L 83.9146499633789 19.05690765380859 L 83.91211700439453 19.00534629821777 L 83.9118881225586 18.999999999999996 L 83.9118881225586 18.99958229064941 L 83.9118881225586 18.990669250488278 L 83.93961334228516 18.431999206542965 L 83.9578857421875 18.063774108886715 L 84.04114532470703 16.38400077819824 L 84.06723022460938 15.857681274414059 L 84.06770324707031 15.848400115966793 L 84.0679931640625 15.844883918762203 L 84.06824493408203 15.841906547546383 L 84.29157257080078 14.33600044250488 L 84.29528045654297 14.311021804809567 L 84.30011749267578 14.278360366821286 L 84.30742645263672 14.229055404663082 L 84.35092163085938 13.93560981750488 L 84.3509521484375 13.93560409545898 L 85.89791107177734 13.666247367858883 L 85.92986297607422 13.66067028045654 L 85.95559692382812 13.656204223632809 L 86.01599884033203 13.645718574523922 L 86.25257873535156 13.604649543762203 L 86.26101684570312 13.603173255920407 L 86.30000305175781 13.596417427062985 L 86.45094299316406 13.570257186889645 L 86.88741302490234 13.49463844299316 L 88.06400299072266 13.497209548950192 L 88.0650405883789 13.497211456298825 L 88.67664337158203 13.49854755401611 L 88.677001953125 13.498548507690426 M 84.79988861083984 13.493784904479977 L 84.78958892822266 13.496061325073239 L 84.40347290039062 13.581439018249508 L 84.4034194946289 13.581452369689938 L 84.40303802490234 13.581535339355465 L 84.40302276611328 13.581538200378414 L 84.41554260253906 13.496986389160153 L 84.41600036621094 13.493916511535641 L 84.416015625 13.493916511535641 L 84.79988861083984 13.493784904479977 M 83.11799621582031 13.493321418762203 L 83.11822509765625 13.494855880737301 L 83.1368637084961 13.620264053344723 L 83.13682556152344 13.620256423950192 L 83.13629150390625 13.620152473449703 L 83.13269805908203 13.619452476501461 L 82.48894500732422 13.494208335876461 L 82.48371124267578 13.493190765380856 L 83.11799621582031 13.493321418762203 M 83.46784210205078 15.857681274414059 L 83.46985626220703 15.898200988769528 L 83.49401092529297 16.38400077819824 L 83.57752990722656 18.063774108886715 L 83.59585571289062 18.431999206542965 L 83.62366485595703 18.990669250488278 L 83.62366485595703 18.99172973632812 L 83.62366485595703 18.999999999999996 L 83.62344360351562 19.00534629821777 L 83.62054443359375 19.067789077758786 L 83.61322784423828 19.21144866943359 L 83.61289978027344 19.220552444458004 L 83.60128784179688 19.455999374389645 L 83.5512924194336 20.470275878906246 L 83.55081176757812 20.479999542236325 L 83.52700805664062 20.96313095092773 L 83.51740264892578 21.156656265258786 L 83.4679183959961 22.145086288452145 L 83.46780395507812 22.146511077880856 L 83.4676742553711 22.148042678833004 L 83.46737670898438 22.1515998840332 L 83.46595764160156 22.160102844238278 L 83.41131591796875 22.527999877929684 L 83.40925598144531 22.541870117187496 L 83.32060241699219 23.138788223266598 L 83.26315307617188 23.526065826416012 L 83.2612075805664 23.540010452270504 L 83.11799621582031 24.505535125732415 L 83.11785888671875 24.505535125732415 L 81.91999816894531 24.506282806396477 L 80.89689636230469 24.50692176818847 L 80.1753158569336 24.396860122680657 L 80.17181396484375 24.396310806274407 L 79.78097534179688 24.336648941040032 L 79.21485137939453 24.249999999999993 L 77.84719848632812 24.040676116943352 L 77.8239974975586 24.037124633789055 L 77.81214904785156 24.035312652587884 L 77.70940399169922 23.34326362609863 L 77.6797103881836 23.138788223266598 L 77.5891342163086 22.527999877929684 L 77.53457641601562 22.160102844238278 L 77.53316497802734 22.1515998840332 L 77.5326156616211 22.145086288452145 L 77.4737548828125 20.963438034057614 L 77.449951171875 20.479999542236325 L 77.39952850341797 19.455999374389645 L 77.37850189208984 19.029073715209957 L 77.37733459472656 19.00534629821777 L 77.37711334228516 18.999999999999996 L 77.37711334228516 18.990669250488278 L 77.37962341308594 18.939126968383786 L 77.38733673095703 18.781784057617184 L 77.38749694824219 18.77729988098144 L 77.38765716552734 18.772827148437496 L 77.40473175048828 18.431999206542965 L 77.42317962646484 18.063774108886715 L 77.5065689086914 16.38400077819824 L 77.51411437988281 16.23197746276855 L 77.5326919555664 15.857681274414059 L 77.53303527832031 15.850853919982907 L 77.53316497802734 15.848400115966793 L 77.53370666503906 15.841906547546383 L 77.75711059570312 14.33600044250488 L 77.8239974975586 13.885122299194332 L 77.88200378417969 13.494160652160641 L 80.10310363769531 13.493079185485836 L 80.58039855957031 13.565933227539059 L 80.8246841430664 13.603140830993649 L 80.82818603515625 13.603689193725582 L 81.17420959472656 13.656510353088375 L 81.21902465820312 13.663352012634274 L 81.25406646728516 13.66873455047607 L 81.31761932373047 13.678462028503414 L 81.91999816894531 13.770668983459469 L 83.1836929321289 13.964102745056149 L 83.18766021728516 13.9647102355957 L 83.2339859008789 14.275494575500485 L 83.24300384521484 14.33600044250488 L 83.24624633789062 14.357721328735348 L 83.46682739257812 15.841906547546383 L 83.46737670898438 15.848400115966793 L 83.46784210205078 15.857681274414059 M 76.58399963378906 13.498548507690426 L 76.7084732055664 14.33600044250488 L 76.93229675292969 15.841906547546383 L 76.9328384399414 15.848400115966793 L 76.93330383300781 15.857681274414059 L 76.95943450927734 16.38400077819824 L 77.0428237915039 18.063774108886715 L 77.06098175048828 18.431999206542965 L 77.07013702392578 18.61764335632324 L 77.07015228271484 18.61786079406738 L 77.0783462524414 18.784034729003903 L 77.08660888671875 18.946884155273434 L 77.0888900756836 18.990669250488278 L 77.0888900756836 18.991733551025387 L 77.0888900756836 18.997806549072262 L 77.0888900756836 18.999999999999996 L 77.08866119384766 19.00534629821777 L 77.06647491455078 19.455999374389645 L 77.01605224609375 20.479999542236325 L 76.99224090576172 20.963438034057614 L 76.93338012695312 22.145086288452145 L 76.9328384399414 22.1515998840332 L 76.93142700195312 22.160102844238278 L 76.87686920166016 22.527999877929684 L 76.78629302978516 23.138788223266598 L 76.75509643554688 23.34878540039062 L 76.71437072753906 23.623651504516598 L 76.64906311035156 24.064428329467766 L 76.64894104003906 24.064449310302727 L 76.6469955444336 24.064788818359368 L 75.07013702392578 24.339328765869134 L 74.74742126464844 24.39534950256347 L 74.73898315429688 24.396825790405266 L 74.70454406738281 24.402793884277337 L 74.11258697509766 24.50536155700683 L 73.72799682617188 24.50446128845214 L 72.9647445678711 24.502674102783196 L 72.322998046875 24.50117111206054 L 72.18295288085938 23.56080627441406 L 72.17705535888672 23.52166938781738 L 72.17112731933594 23.48136711120605 L 72.1207046508789 23.138788223266598 L 72.0301284790039 22.527999877929684 L 71.97557830810547 22.160102844238278 L 71.97513580322266 22.157449722290036 L 71.97415924072266 22.1515998840332 L 71.97361755371094 22.145086288452145 L 71.92388153076172 21.145561218261715 L 71.9146728515625 20.963676452636715 L 71.89071655273438 20.479999542236325 L 71.88945770263672 20.45461845397949 L 71.84835815429688 19.61911010742187 L 71.82820892333984 19.209344863891598 L 71.82703399658203 19.186902999877926 L 71.82089233398438 19.05690765380859 L 71.8183364868164 19.00534629821777 L 71.818115234375 18.999999999999996 L 71.818115234375 18.998106002807614 L 71.818115234375 18.990669250488278 L 71.84587860107422 18.431999206542965 L 71.86418151855469 18.063774108886715 L 71.94756317138672 16.38400077819824 L 71.97136688232422 15.90460109710693 L 71.97369384765625 15.857681274414059 L 71.97415924072266 15.848400115966793 L 71.97445678710938 15.84490871429443 L 71.9747085571289 15.841906547546383 L 72.19837951660156 14.33600044250488 L 72.20208740234375 14.311021804809567 L 72.25791931152344 13.935651779174801 L 72.25791931152344 13.93560981750488 L 72.25958251953125 13.935321807861325 L 72.26203155517578 13.934895515441891 L 73.72799682617188 13.680391311645504 L 74.77848815917969 13.498017311096188 L 74.77862548828125 13.498017311096188 L 75.7760009765625 13.498310089111325 L 76.58399963378906 13.498548507690426 M 72.7068862915039 13.493784904479977 L 72.69241333007812 13.496985435485836 L 72.69052124023438 13.497402191162106 L 72.31493377685547 13.580452919006344 L 72.31060028076172 13.581412315368649 L 72.31045532226562 13.58144378662109 L 72.3103256225586 13.581473350524899 L 72.31002807617188 13.581538200378414 L 72.32250213623047 13.497294425964352 L 72.32254791259766 13.496985435485836 L 72.322998046875 13.493916511535641 L 72.32328033447266 13.493916511535641 L 72.7068862915039 13.493784904479977 M 71.09425354003906 13.961961746215817 L 71.09434509277344 13.962576866149899 L 71.09471893310547 13.965099334716793 L 71.14996337890625 14.33600044250488 L 71.1516342163086 14.347194671630856 L 71.373291015625 15.841906547546383 L 71.37335968017578 15.842675209045407 L 71.37354278564453 15.84490871429443 L 71.37384033203125 15.848400115966793 L 71.37430572509766 15.857681274414059 L 71.40043640136719 16.38400077819824 L 71.48381805419922 18.063774108886715 L 71.50212097167969 18.431999206542965 L 71.5298843383789 18.990669250488278 L 71.5298843383789 18.999999999999996 L 71.52982330322266 19.001632690429684 L 71.5296630859375 19.00534629821777 L 71.52942657470703 19.00942802429199 L 71.51847839355469 19.227851867675778 L 71.51605224609375 19.276250839233395 L 71.512939453125 19.340188980102536 L 71.50843811035156 19.431339263916012 L 71.50837707519531 19.43261337280273 L 71.5072250366211 19.455999374389645 L 71.48941040039062 19.817279815673825 L 71.45706176757812 20.479999542236325 L 71.44320678710938 20.763900756835934 L 71.43346405029297 20.96358489990234 L 71.42378997802734 21.15356636047363 L 71.37438201904297 22.145086288452145 L 71.37384033203125 22.1515998840332 L 71.37242126464844 22.160102844238278 L 71.31787109375 22.527999877929684 L 71.227294921875 23.138788223266598 L 71.2004623413086 23.31870079040527 L 71.1952896118164 23.35554695129394 L 71.02574920654297 24.498134613037102 L 71.0250015258789 24.503208160400384 L 70.6968994140625 24.50329971313476 L 70.23291778564453 24.50292778015136 L 70.20274353027344 24.49620819091796 L 69.63200378417969 24.369094848632805 L 68.67478942871094 24.155910491943352 L 68.66866302490234 24.15503501892089 L 68.60800170898438 24.14153289794921 L 68.1639633178711 24.042703628540032 L 68.10528564453125 24.029991149902337 L 68.04071807861328 24.01480865478515 L 68.0018310546875 24.006208419799798 L 68.00144958496094 24.00612831115722 L 67.99851989746094 24.00548553466796 L 67.99247741699219 24.004152297973626 L 67.99166870117188 24.00398635864257 L 67.98174285888672 24.00196456909179 L 67.9800033569336 24.001607894897454 L 67.97999572753906 24.001594543457024 L 67.97956848144531 24.00043296813964 L 67.90499877929688 23.796333312988278 L 67.90220642089844 23.781770706176754 L 67.85807800292969 23.552000045776364 L 67.83623504638672 23.438266754150387 L 67.77047729492188 23.100049972534176 L 67.73500061035156 22.916971206665036 L 67.69094848632812 22.527999877929684 L 67.64833068847656 22.151666641235348 L 67.6050033569336 21.00938034057617 L 67.59408569335938 20.479999542236325 L 67.58399963378906 19.990913391113278 L 67.58180236816406 19.884494781494137 L 67.56358337402344 18.999999999999996 L 67.57528686523438 18.431999206542965 L 67.58180236816406 18.115505218505856 L 67.58280181884766 18.08735847473144 L 67.58399963378906 18.020942687988278 L 67.5863265991211 17.891811370849606 L 67.60464477539062 17.005392074584957 L 67.6050033569336 16.988214492797848 L 67.61284637451172 16.788166046142575 L 67.62810516357422 16.38400077819824 L 67.64833068847656 15.848333358764645 L 67.70354461669922 15.359999656677243 L 67.73375701904297 15.092733383178707 L 67.73500061035156 15.081752777099606 L 67.74101257324219 15.05070877075195 L 67.83609771728516 14.561184883117672 L 67.87210845947266 14.374167442321774 L 67.87945556640625 14.33600044250488 L 67.90499877929688 14.203311920166012 L 67.90544891357422 14.202067375183102 L 68.01315307617188 13.905363082885739 L 68.02766418457031 13.865381240844723 L 68.06500244140625 13.760353088378903 L 68.10128021240234 13.658881187438961 L 68.10299682617188 13.654071807861325 L 68.13409423828125 13.627372741699215 L 68.16209411621094 13.603986740112301 L 68.1663589477539 13.600420951843258 L 68.17195129394531 13.595086097717282 L 68.27944946289062 13.498051643371578 L 68.28894805908203 13.498040199279782 L 68.60800170898438 13.497643470764157 L 69.0080795288086 13.497145652770993 L 69.2467041015625 13.550160408020016 L 69.32250213623047 13.567000389099118 L 69.56858825683594 13.621792793273922 L 69.63200378417969 13.63593769073486 L 69.99987030029297 13.717990875244137 L 70.32615661621094 13.79069900512695 L 70.3537826538086 13.796817779541012 L 70.37661743164062 13.80194282531738 L 70.385986328125 13.804046630859371 L 70.54569244384766 13.8396463394165 L 70.55616760253906 13.841993331909176 L 70.57066345214844 13.845306396484371 L 70.57378387451172 13.845966339111325 L 70.59391784667969 13.850451469421383 L 70.65599822998047 13.864281654357907 L 71.05338287353516 13.952807426452633 L 71.09425354003906 13.961961746215817 M 88.2931137084961 24.50621604919433 L 88.30509948730469 24.50356483459472 L 88.30801391601562 24.50292015075683 L 88.68964385986328 24.418527603149407 L 88.69001007080078 24.418445587158196 L 88.68635559082031 24.44309997558593 L 88.67742919921875 24.503087997436516 L 88.67736053466797 24.50356483459472 L 88.677001953125 24.50598526000976 L 88.2931137084961 24.50621604919433 M 77.88200378417969 24.50654220581054 L 77.88188171386719 24.505750656127923 L 77.86849975585938 24.415727615356438 L 77.86315155029297 24.37981414794921 L 77.8633041381836 24.379842758178704 L 78.5135269165039 24.506273269653313 L 78.51628875732422 24.506809234619134 L 77.88201141357422 24.50654220581054 L 77.88200378417969 24.50654220581054 M 76.20011138916016 24.50621604919433 L 76.2082748413086 24.504411697387688 L 76.59284210205078 24.41935729980468 L 76.59659576416016 24.418527603149407 L 76.59696197509766 24.418445587158196 L 76.59334564208984 24.44309997558593 L 76.58435821533203 24.503562927246087 L 76.58399963378906 24.50598526000976 L 76.20011138916016 24.50621604919433 M -69.90499877929688 14.203666687011715 L -69.90220642089844 14.218229293823239 L -69.90217590332031 14.218387603759762 L -69.87958526611328 14.33600044250488 L -69.8609390258789 14.433073043823239 L -69.83623504638672 14.561733245849606 L -69.77047729492188 14.899950027465817 L -69.73587036132812 15.078528404235836 L -69.73500061035156 15.083028793334957 L -69.7036361694336 15.359999656677243 L -69.64833068847656 15.848333358764645 L -69.64823150634766 15.851018905639645 L -69.63200378417969 16.27888679504394 L -69.62801361083984 16.38400077819824 L -69.6050033569336 16.990619659423825 L -69.58180236816406 18.115505218505856 L -69.57528686523438 18.431999206542965 L -69.56358337402344 18.999999999999996 L -69.5729751586914 19.455999374389645 L -69.5745849609375 19.5340461730957 L -69.57463073730469 19.536144256591793 L -69.58180236816406 19.884494781494137 L -69.58280181884766 19.91264152526855 L -69.58573150634766 20.074888229370114 L -69.5863265991211 20.108188629150387 L -69.59400939941406 20.479999542236325 L -69.6050033569336 21.011785507202145 L -69.60506439208984 21.013521194458004 L -69.61284637451172 21.21183395385742 L -69.63200378417969 21.719087600708004 L -69.64833068847656 22.151666641235348 L -69.69087982177734 22.527999877929684 L -69.73500061035156 22.918247222900387 L -69.74101257324219 22.949291229248043 L -69.83609771728516 23.438814163208004 L -69.90084075927734 23.775079727172848 L -69.90499877929688 23.79668807983398 L -70.02766418457031 24.134618759155266 L -70.06500244140625 24.240453720092766 L -70.09456634521484 24.32318687438964 L -70.09884643554688 24.33514976501464 L -70.10299682617188 24.346776962280266 L -70.13409423828125 24.373455047607415 L -70.1663589477539 24.399578094482415 L -70.17195129394531 24.404914855957024 L -70.19495391845703 24.425676345825188 L -70.27944946289062 24.501947402954094 L -70.28385162353516 24.501953124999993 L -70.29971313476562 24.501974105834954 L -71.0013198852539 24.50284576416015 L -71.00796508789062 24.50285339355468 L -71.0080795288086 24.50285339355468 L -71.6707763671875 24.355197906494134 L -71.68000030517578 24.353143692016594 L -72.57066345214844 24.154693603515618 L -72.57378387451172 24.154033660888665 L -73.05338287353516 24.04719161987304 L -73.09425354003906 24.038038253784173 L -73.0943603515625 24.037288665771477 L -73.1516342163086 23.652805328369137 L -73.16658020019531 23.552000045776364 L -73.31843566894531 22.527999877929684 L -73.373291015625 22.158094406127926 L -73.37354278564453 22.15509223937988 L -73.37384033203125 22.1515998840332 L -73.37430572509766 22.142318725585934 L -73.45682525634766 20.479999542236325 L -73.48381805419922 19.936225891113278 L -73.5076904296875 19.455999374389645 L -73.5298843383789 19.009330749511715 L -73.5298843383789 18.999999999999996 L -73.5296630859375 18.994653701782223 L -73.52942657470703 18.990571975708004 L -73.51847839355469 18.772148132324215 L -73.51605224609375 18.723749160766598 L -73.512939453125 18.659811019897457 L -73.50843811035156 18.56866073608398 L -73.50837707519531 18.567386627197262 L -73.50170135498047 18.431999206542965 L -73.48941040039062 18.18272018432617 L -73.44320678710938 17.23609924316406 L -73.43346405029297 17.036415100097653 L -73.42378997802734 16.846433639526364 L -73.40074920654297 16.38400077819824 L -73.37950134277344 15.957548141479489 L -73.37438201904297 15.854913711547848 L -73.37384033203125 15.848400115966793 L -73.37242126464844 15.839896202087399 L -73.227294921875 14.861210823059078 L -73.2004623413086 14.681299209594723 L -73.1952896118164 14.644453048706051 L -73.14952087402344 14.33600044250488 L -73.02667999267578 13.50810623168945 L -73.0250015258789 13.49679088592529 L -72.6968994140625 13.496701240539547 L -72.23291778564453 13.49707221984863 L -71.68000030517578 13.62021446228027 L -70.67478942871094 13.844090461730953 L -70.66866302490234 13.844965934753414 L -70.65599822998047 13.847783088684078 L -70.1639633178711 13.957296371459957 L -70.10528564453125 13.970009803771969 L -70.04071807861328 13.98519134521484 L -70.0018310546875 13.993791580200192 L -70.00144958496094 13.99387168884277 L -69.99851989746094 13.994513511657711 L -69.99247741699219 13.995847702026364 L -69.99166870117188 13.996012687683102 L -69.98174285888672 13.9980354309082 L -69.98103332519531 13.99818134307861 L -69.98102569580078 13.998183250427243 L -69.9800033569336 13.998391151428219 L -69.90499877929688 14.203666687011715 M -76.73898315429688 13.603173255920407 L -76.70454406738281 13.597206115722653 L -76.11258697509766 13.49463844299316 L -74.322998046875 13.49882888793945 L -74.19832611083984 14.33600044250488 L -74.18295288085938 14.439193725585934 L -74.17705535888672 14.47833156585693 L -74.17112731933594 14.518633842468258 L -74.1207046508789 14.861210823059078 L -73.97557830810547 15.839896202087399 L -73.97415924072266 15.848400115966793 L -73.97361755371094 15.854913711547848 L -73.97318267822266 15.863586425781246 L -73.9472885131836 16.38400077819824 L -73.92388153076172 16.854438781738278 L -73.9146728515625 17.036323547363278 L -73.88945770263672 17.545381546020504 L -73.88550567626953 17.62563896179199 L -73.8458480834961 18.431999206542965 L -73.82820892333984 18.790655136108395 L -73.82703399658203 18.813097000122067 L -73.82089233398438 18.943092346191403 L -73.8183364868164 18.994653701782223 L -73.818115234375 18.999999999999996 L -73.818115234375 19.009330749511715 L -73.86418151855469 19.936225891113278 L -73.89117431640625 20.479999542236325 L -73.97369384765625 22.142318725585934 L -73.97415924072266 22.1515998840332 L -73.97445678710938 22.15509223937988 L -73.9747085571289 22.158094406127926 L -74.20208740234375 23.688978195190426 L -74.22489929199219 23.84232902526855 L -74.2332534790039 23.89852714538574 L -74.25704193115234 24.058471679687493 L -74.25791931152344 24.06439018249511 L -74.25872039794922 24.064529418945305 L -74.25958251953125 24.064678192138665 L -74.26203155517578 24.065103530883782 L -76.77848815917969 24.501983642578118 L -76.78534698486328 24.501981735229485 L -77.8239974975586 24.501674652099602 L -78.58399963378906 24.501451492309563 L -78.87731170654297 22.527999877929684 L -78.93229675292969 22.158094406127926 L -78.9328384399414 22.1515998840332 L -78.93330383300781 22.142318725585934 L -79.01583099365234 20.479999542236325 L -79.0428237915039 19.936225891113278 L -79.0665054321289 19.455999374389645 L -79.07013702392578 19.382356643676754 L -79.07015228271484 19.382139205932614 L -79.0783462524414 19.21596527099609 L -79.08660888671875 19.05311584472656 L -79.0888900756836 19.009330749511715 L -79.0888900756836 19.008266448974606 L -79.0888900756836 19.00219345092773 L -79.0888900756836 18.999999999999996 L -79.08866119384766 18.994653701782223 L -79.06095886230469 18.431999206542965 L -78.99224090576172 17.03656196594238 L -78.9597396850586 16.38400077819824 L -78.93338012695312 15.854913711547848 L -78.93331146240234 15.85409069061279 L -78.9328384399414 15.848400115966793 L -78.93142700195312 15.839896202087399 L -78.78629302978516 14.861210823059078 L -78.75509643554688 14.651214599609371 L -78.70838928222656 14.33600044250488 L -78.64906311035156 13.935571670532223 L -78.64894104003906 13.935550689697262 L -77.8239974975586 13.791923522949215 L -77.07013702392578 13.66067028045654 L -76.74742126464844 13.604649543762203 L -76.73898315429688 13.603173255920407 M -78.20011138916016 13.493784904479977 L -78.59696197509766 13.581553459167477 L -78.59686279296875 13.580859184265133 L -78.59334564208984 13.556899070739743 L -78.58399963378906 13.49401473999023 L -78.58316802978516 13.49401473999023 L -78.5796127319336 13.494011878967282 L -78.21163177490234 13.493791580200192 L -78.20291137695312 13.49378681182861 L -78.20011138916016 13.493784904479977 M -79.81214904785156 13.964687347412106 L -79.78705596923828 14.13370323181152 L -79.75702667236328 14.33600044250488 L -79.70940399169922 14.656736373901364 L -79.6797103881836 14.861210823059078 L -79.53457641601562 15.839896202087399 L -79.53316497802734 15.848400115966793 L -79.5326156616211 15.854913711547848 L -79.53116607666016 15.883991241455075 L -79.50626373291016 16.38400077819824 L -79.4737548828125 17.03656196594238 L -79.40504455566406 18.431999206542965 L -79.37850189208984 18.970926284790036 L -79.37733459472656 18.994653701782223 L -79.37711334228516 18.999999999999996 L -79.37711334228516 19.009330749511715 L -79.37962341308594 19.060873031616207 L -79.38733673095703 19.21821594238281 L -79.38765716552734 19.227172851562496 L -79.39645385742188 19.402803421020504 L -79.39911651611328 19.455999374389645 L -79.40840148925781 19.641344070434567 L -79.42317962646484 19.936225891113278 L -79.4501724243164 20.479999542236325 L -79.51411437988281 21.76802253723144 L -79.5326919555664 22.142318725585934 L -79.53316497802734 22.1515998840332 L -79.5334243774414 22.15468025207519 L -79.53370666503906 22.158094406127926 L -79.53489685058594 22.166090011596676 L -79.58858489990234 22.527999877929684 L -79.88129425048828 24.501070022583 L -79.88200378417969 24.505838394165032 L -81.91999816894531 24.506832122802727 L -82.10310363769531 24.50692176818847 L -82.58039855957031 24.43406677246093 L -82.8246841430664 24.396860122680657 L -82.82818603515625 24.396310806274407 L -83.17420959472656 24.343488693237298 L -83.21902465820312 24.336648941040032 L -83.25406646728516 24.331264495849602 L -85.1803207397461 24.036413192749016 L -85.1836929321289 24.035896301269524 L -85.18766021728516 24.03528976440429 L -85.2339859008789 23.724506378173825 L -85.24461364746094 23.65323448181152 L -85.24624633789062 23.642278671264645 L -85.41184997558594 22.527999877929684 L -85.46682739257812 22.158094406127926 L -85.46708679199219 22.155067443847653 L -85.46737670898438 22.1515998840332 L -85.46784210205078 22.142318725585934 L -85.55049133300781 20.479999542236325 L -85.57752990722656 19.936225891113278 L -85.62366485595703 19.009330749511715 L -85.62366485595703 18.999999999999996 L -85.62344360351562 18.994653701782223 L -85.62054443359375 18.932210922241207 L -85.61582946777344 18.839591979980465 L -85.61322784423828 18.788551330566403 L -85.61298370361328 18.781887054443356 L -85.61289978027344 18.77944755554199 L -85.59577178955078 18.431999206542965 L -85.5512924194336 17.529724121093746 L -85.52700805664062 17.036869049072262 L -85.51740264892578 16.843343734741207 L -85.4944076538086 16.38400077819824 L -85.4679183959961 15.854913711547848 L -85.46780395507812 15.853488922119137 L -85.46737670898438 15.848400115966793 L -85.46595764160156 15.839896202087399 L -85.32060241699219 14.861210823059078 L -85.26315307617188 14.47393417358398 L -85.2612075805664 14.459988594055172 L -85.2428207397461 14.33600044250488 L -85.11799621582031 13.494465827941891 L -85.11785888671875 13.494465827941891 L -83.96800231933594 13.493747711181637 L -82.89689636230469 13.493079185485836 L -82.1753158569336 13.603140830993649 L -82.17181396484375 13.603689193725582 L -81.91999816894531 13.642128944396969 L -81.78097534179688 13.663352012634274 L -79.87200164794922 13.95552825927734 L -79.81214904785156 13.964687347412106 M -79.88200378417969 13.493456840515133 L -79.87200164794922 13.560710906982418 L -79.86849975585938 13.584271430969235 L -79.86315155029297 13.620186805725094 L -79.8633041381836 13.620156288146969 L -79.87200164794922 13.618466377258297 L -80.51628875732422 13.493190765380856 L -80.35025787353516 13.493260383605953 L -79.88211822509766 13.493456840515133 L -79.88201141357422 13.493456840515133 L -79.88200378417969 13.493456840515133 M -86.06715393066406 15.854913711547848 L -86.0408706665039 16.38400077819824 L -86.01749420166016 16.854438781738278 L -86.01599884033203 16.88378524780273 L -86.00822448730469 17.036323547363278 L -85.99695587158203 17.267877578735348 L -85.98345947265625 17.545381546020504 L -85.93984985351562 18.431999206542965 L -85.92221069335938 18.790655136108395 L -85.9146499633789 18.943092346191403 L -85.91211700439453 18.994653701782223 L -85.9118881225586 18.999999999999996 L -85.9118881225586 19.009330749511715 L -85.9578857421875 19.936225891113278 L -85.9848403930664 20.479999542236325 L -86.01599884033203 21.108697891235348 L -86.06723022460938 22.142318725585934 L -86.06770324707031 22.1515998840332 L -86.0679931640625 22.155115127563473 L -86.06824493408203 22.158094406127926 L -86.12310028076172 22.527999877929684 L -86.29528045654297 23.688978195190426 L -86.30011749267578 23.721639633178707 L -86.35082244873047 24.063720703124993 L -86.35092163085938 24.06439018249511 L -86.3509521484375 24.06439590454101 L -86.35274505615234 24.06470870971679 L -87.89791107177734 24.33375167846679 L -87.92986297607422 24.339328765869134 L -88.25257873535156 24.39534950256347 L -88.26101684570312 24.396825790405266 L -88.30000305175781 24.40358352661132 L -88.45094299316406 24.429742813110344 L -88.88741302490234 24.50536155700683 L -90.11199951171875 24.502685546874993 L -90.67469024658203 24.50145721435546 L -90.677001953125 24.501451492309563 L -90.97076416015625 22.527999877929684 L -91.02583312988281 22.158094406127926 L -91.02584075927734 22.157922744750973 L -91.02635192871094 22.15187835693359 L -91.02637481689453 22.1515998840332 L -91.02684020996094 22.142318725585934 L -91.10948944091797 20.479999542236325 L -91.13652801513672 19.936225891113278 L -91.15665435791016 19.531480789184567 L -91.15774536132812 19.5095043182373 L -91.16040802001953 19.455999374389645 L -91.17234802246094 19.21596527099609 L -91.17354583740234 19.193885803222653 L -91.18038177490234 19.05311584472656 L -91.18266296386719 19.009330749511715 L -91.18266296386719 19.00617980957031 L -91.18266296386719 18.999999999999996 L -91.18244171142578 18.994653701782223 L -91.17993927001953 18.94400024414062 L -91.15469360351562 18.431999206542965 L -91.08587646484375 17.03656196594238 L -91.05331420898438 16.38400077819824 L -91.0274429321289 15.865371704101559 L -91.02692413330078 15.854913711547848 L -91.02657318115234 15.850767135620114 L -91.02637481689453 15.848400115966793 L -91.02495574951172 15.839896202087399 L -90.87960815429688 14.861210823059078 L -90.84868621826172 14.651214599609371 L -90.80182647705078 14.33600044250488 L -90.7877426147461 14.241310119628903 L -90.7422866821289 13.935571670532223 L -90.74101257324219 13.935350418090817 L -90.11199951171875 13.826166152954098 L -88.22151184082031 13.498017311096188 L -86.41600036621094 13.49882888793945 L -86.33135223388672 14.06873798370361 L -86.29165649414062 14.33600044250488 L -86.27051544189453 14.47833156585693 L -86.21401977539062 14.861210823059078 L -86.0691146850586 15.839896202087399 L -86.06770324707031 15.848400115966793 L -86.06715393066406 15.854913711547848 M -90.2931137084961 13.493784904479977 L -90.30509948730469 13.496436119079586 L -90.30801391601562 13.497078895568844 L -90.68687438964844 13.580859184265133 L -90.68964385986328 13.581471443176266 L -90.69001007080078 13.581553459167477 L -90.68635559082031 13.556899070739743 L -90.67736053466797 13.496436119079586 L -90.677001953125 13.49401473999023 L -90.2931137084961 13.493784904479977 M -92.6462173461914 13.796817779541012 L -92.614013671875 13.804046630859371 L -92.45430755615234 13.8396463394165 L -92.44383239746094 13.841993331909176 L -92.42933654785156 13.845306396484371 L -92.39198303222656 13.85361003875732 L -92.27377319335938 13.879889488220211 L -92.16000366210938 13.905180931091305 L -91.95247650146484 13.951314926147457 L -91.90567016601562 13.96179389953613 L -91.90564727783203 13.961946487426754 L -91.90555572509766 13.962599754333493 L -91.90518188476562 13.965122222900387 L -91.85037231445312 14.33600044250488 L -91.77283477783203 14.860685348510739 L -91.62811279296875 15.839896202087399 L -91.62670135498047 15.848400115966793 L -91.62649536132812 15.850811958312985 L -91.62647247314453 15.851092338562008 L -91.62615203857422 15.854913711547848 L -91.59983825683594 16.38400077819824 L -91.5673828125 17.03656196594238 L -91.498779296875 18.431999206542965 L -91.47360229492188 18.94400024414062 L -91.47111511230469 18.994653701782223 L -91.47088623046875 18.999999999999996 L -91.4713363647461 19.008478164672848 L -91.4713363647461 19.010469436645504 L -91.4713363647461 19.017799377441403 L -91.48429870605469 19.280450820922848 L -91.48731231689453 19.343158721923825 L -91.49168395996094 19.430887222290036 L -91.49293518066406 19.455999374389645 L -91.51688385009766 19.936225891113278 L -91.54383850097656 20.479999542236325 L -91.61685180664062 21.953048706054684 L -91.62623596191406 22.142318725585934 L -91.62670135498047 22.1515998840332 L -91.62672424316406 22.151927947998043 L -91.62724304199219 22.158094406127926 L -91.6279067993164 22.162570953369137 L -91.68209075927734 22.527999877929684 L -91.97329711914062 24.491897583007805 L -91.97429656982422 24.498617172241204 L -91.9749984741211 24.50337600708007 L -92.4040756225586 24.503507614135735 L -92.76708221435547 24.50292778015136 L -92.79449462890625 24.496826171874993 L -93.82325744628906 24.267835617065423 L -94.20800018310547 24.18204498291015 L -94.32521057128906 24.155910491943352 L -94.32768249511719 24.155557632446282 L -94.33133697509766 24.15503501892089 L -94.8360366821289 24.042703628540032 L -94.89471435546875 24.029991149902337 L -94.95928192138672 24.01480865478515 L -94.9981689453125 24.006208419799798 L -94.99855041503906 24.00612831115722 L -95.00148010253906 24.00548553466796 L -95.00752258300781 24.004152297973626 L -95.01825714111328 24.00196456909179 L -95.0199966430664 24.001607894897454 L -95.02000427246094 24.001594543457024 L -95.02008819580078 24.00137519836425 L -95.02043151855469 24.00043296813964 L -95.09500122070312 23.796333312988278 L -95.14192199707031 23.552000045776364 L -95.16376495361328 23.438266754150387 L -95.22952270507812 23.100049972534176 L -95.26412963867188 22.921472549438473 L -95.26499938964844 22.916971206665036 L -95.30905151367188 22.527999877929684 L -95.35166931152344 22.151666641235348 L -95.35176849365234 22.148981094360348 L -95.37623596191406 21.503999710083004 L -95.3949966430664 21.00938034057617 L -95.40591430664062 20.479999542236325 L -95.41819763183594 19.884494781494137 L -95.4270248413086 19.455999374389645 L -95.43627166748047 19.007303237915036 L -95.43641662597656 18.999999999999996 L -95.43526458740234 18.94400024414062 L -95.43187713623047 18.77976608276367 L -95.4267807006836 18.53237724304199 L -95.42471313476562 18.431999206542965 L -95.41819763183594 18.115505218505856 L -95.41815948486328 18.109014511108395 L -95.41803741455078 18.08735847473144 L -95.4136734008789 17.891811370849606 L -95.40367126464844 17.40800094604492 L -95.39535522460938 17.005392074584957 L -95.3949966430664 16.988214492797848 L -95.38715362548828 16.788166046142575 L -95.37189483642578 16.38400077819824 L -95.35166931152344 15.848333358764645 L -95.29645538330078 15.359999656677243 L -95.26499938964844 15.081752777099606 L -95.25898742675781 15.05070877075195 L -95.16390228271484 14.561184883117672 L -95.12054443359375 14.33600044250488 L -95.09689331054688 14.21316051483154 L -95.09500122070312 14.203311920166012 L -94.98684692382812 13.905363082885739 L -94.97233581542969 13.865381240844723 L -94.93499755859375 13.760353088378903 L -94.89962768554688 13.661427497863766 L -94.8984146118164 13.658037185668942 L -94.89700317382812 13.654071807861325 L -94.86589050292969 13.626945495605465 L -94.83920288085938 13.604691505432125 L -94.83366394042969 13.600068092346188 L -94.8209228515625 13.58821868896484 L -94.80387878417969 13.572868347167965 L -94.7205581665039 13.497802734374996 L -94.20800018310547 13.49734020233154 L -93.99909210205078 13.497152328491207 L -93.9919204711914 13.497145652770993 L -93.67749786376953 13.567000389099118 L -93.43141174316406 13.621792793273922 L -93.00012969970703 13.717990875244137 L -92.67384338378906 13.79069900512695 L -92.6462173461914 13.796817779541012 M -74.31002807617188 24.41846084594726 L -74.322998046875 24.506082534790032 L -74.32328033447266 24.506082534790032 L -74.32345581054688 24.506084442138665 L -74.3236083984375 24.506084442138665 L -74.32646179199219 24.506084442138665 L -74.32843017578125 24.506084442138665 L -74.7068862915039 24.50621604919433 L -74.31493377685547 24.41954612731933 L -74.31312561035156 24.41914749145507 L -74.31060028076172 24.418588638305657 L -74.31045532226562 24.4185562133789 L -74.3103256225586 24.418527603149407 L -74.31002807617188 24.41846084594726 M -85.11799621582031 24.506679534912102 L -85.11822509765625 24.505144119262688 L -85.1368637084961 24.379735946655266 L -85.13682556152344 24.379743576049798 L -85.13629150390625 24.379848480224602 L -85.13269805908203 24.38054656982421 L -85.12224578857422 24.382581710815423 L -84.48894500732422 24.505792617797844 L -84.48371124267578 24.506809234619134 L -85.11799621582031 24.506679534912102 M -86.79988861083984 24.50621604919433 L -86.78958892822266 24.50393867492675 L -86.40303802490234 24.418464660644524 L -86.40302276611328 24.41846084594726 L -86.41554260253906 24.503013610839837 L -86.41600036621094 24.506082534790032 L -86.79988861083984 24.50621604919433 z" fill="none" stroke="rgb(255,0,0)" stroke-width="0.001mm" />
</svg>