<?xml version="1.0" standalone="no"?>
<!DOCTYPE svg PUBLIC "-//W3C//DTD SVG 1.1//EN"
  "http://www.w3.org/Graphics/SVG/1.1/DTD/svg11.dtd">
<svg width="13.76821231842041mm" height="185.9276428222656mm" viewBox="-3.2881011962890625 -92.4638214111328 13.76821231842041 185.9276428222656" xmlns="http://www.w3.org/2000/svg" version="1.1">
	<title>svgOutput</title>
	<desc>made with tinkercad</desc>
<path d="M 9.450894355773926 -89.41215515136717 L 9.461033821105957 -89.38604736328124 L 9.47685432434082 -89.34529876708983 L 9.480111122131348 -89.33699798583983 L 9.480111122131348 -89.33691406249999 L 9.480111122131348 -81.9199981689453 L 9.480111122131348 -73.72799682617186 L 9.480111122131348 -71.49708557128905 L 9.480111122131348 -71.4970016479492 L 9.47685432434082 -71.48870849609374 L 9.450894355773926 -71.42192077636717 L 8.982372283935547 -70.69525909423827 L 8.887459754943848 -70.54599761962889 L 8.885587692260742 -70.54515075683592 L 8.192000389099121 -70.23065948486327 L 7.971624374389648 -70.13072967529295 L 7.0659074783325195 -69.7210006713867 L 6.677016735076904 -69.63200378417967 L 6.500511646270752 -69.5916061401367 L 6.49262809753418 -69.59100341796874 L 5.718141078948975 -69.53184509277342 L 4.0960001945495605 -69.40827178955077 L 3.5959999561309814 -69.37018585205077 L 1.4738588333129883 -69.53184509277342 L 0.6981322765350342 -69.59109497070311 L 0.6914882659912109 -69.5916061401367 L 0.5149832367897034 -69.63200378417967 L 0.12609264254570007 -69.7210006713867 L 0 -69.77804565429686 L -0.7796241641044617 -70.13072967529295 L -1.693320393562317 -70.54502868652342 L -1.6954594850540161 -70.54599761962889 L -1.790215253829956 -70.69525909423827 L -2.258429527282715 -71.4211959838867 L -2.258894681930542 -71.42192077636717 L -2.2848546504974365 -71.48870849609374 L -2.2881011962890625 -71.4970016479492 L -2.2881011962890625 -73.72799682617186 L -2.2881011962890625 -81.9199981689453 L -2.2881011962890625 -89.33699798583983 L -2.2848546504974365 -89.34529876708983 L -2.270531415939331 -89.38218688964842 L -2.258894681930542 -89.41215515136717 L -2.258429527282715 -89.41287994384764 L -1.8079869747161865 -90.11199951171874 L -1.790215253829956 -90.1395797729492 L -1.6954594850540161 -90.28900146484374 L -0.7796241641044617 -90.70376586914061 L 2.5228811959465344e-14 -91.05603027343749 L 0.1215953528881073 -91.11096954345702 L 0.12609264254570007 -91.11299896240233 L 0.6914882659912109 -91.24239349365233 L 0.6981322765350342 -91.24290466308592 L 1.4738588333129883 -91.30215454101561 L 2.0480000972747803 -91.34589385986327 L 3.5959999561309814 -91.4638214111328 L 4.0960001945495605 -91.42572784423827 L 5.718141078948975 -91.30215454101561 L 6.500511646270752 -91.24239349365233 L 7.0659074783325195 -91.11299896240233 L 7.971624374389648 -90.70376586914061 L 8.192000389099121 -90.6039581298828 L 8.887459754943848 -90.28900146484374 L 8.982372283935547 -90.1395797729492 L 9.000138282775879 -90.11199951171874 L 9.450894355773926 -89.41215515136717 M 9.450894355773926 72.42192077636717 L 9.47685432434082 72.48870849609374 L 9.480111122131348 72.4970016479492 L 9.480111122131348 73.72799682617186 L 9.480111122131348 81.9199981689453 L 9.480111122131348 90.11199951171874 L 9.480111122131348 90.33699798583983 L 9.47685432434082 90.34529876708983 L 9.461033821105957 90.38604736328124 L 9.450894355773926 90.41215515136717 L 9.450225830078125 90.41320037841795 L 8.982372283935547 91.1395797729492 L 8.887459754943848 91.28900146484374 L 8.192000389099121 91.6039581298828 L 7.971624374389648 91.70376586914061 L 7.0659074783325195 92.11299896240233 L 6.500511646270752 92.24239349365233 L 5.718141078948975 92.30215454101561 L 4.0960001945495605 92.42572784423827 L 3.5959999561309814 92.4638214111328 L 1.4738588333129883 92.30215454101561 L 0.6914882659912109 92.24239349365233 L 0.3314618468284607 92.16000366210936 L 0.12609264254570007 92.11299896240233 L 0 92.05603027343749 L -0.7796241641044617 91.70376586914061 L -1.6933223009109497 91.2899703979492 L -1.6954594850540161 91.28900146484374 L -1.790215253829956 91.1395797729492 L -2.258429527282715 90.41287994384764 L -2.258894681930542 90.41215515136717 L -2.2848546504974365 90.34529876708983 L -2.2881011962890625 90.33699798583983 L -2.2881011962890625 90.11199951171874 L -2.2881011962890625 81.9199981689453 L -2.2881011962890625 73.72799682617186 L -2.2881011962890625 72.4970016479492 L -2.2848546504974365 72.48870849609374 L -2.258894681930542 72.42192077636717 L -2.258429527282715 72.4211959838867 L -1.790215253829956 71.69525909423827 L -1.6954594850540161 71.54599761962889 L -1.693320393562317 71.54502868652342 L -0.7796241641044617 71.13072967529295 L 0 70.77804565429686 L 0.12160637974739075 70.72303009033202 L 0.12609264254570007 70.7210006713867 L 0.6914882659912109 70.5916061401367 L 0.6981322765350342 70.59109497070311 L 1.4738588333129883 70.53184509277342 L 3.5959999561309814 70.37018585205077 L 4.0960001945495605 70.40827178955077 L 5.718141078948975 70.53184509277342 L 6.500511646270752 70.5916061401367 L 7.0659074783325195 70.7210006713867 L 7.971624374389648 71.13072967529295 L 8.192000389099121 71.23065948486327 L 8.885587692260742 71.54515075683592 L 8.887459754943848 71.54599761962889 L 8.982372283935547 71.69525909423827 L 9.450225830078125 72.42088317871092 L 9.450894355773926 72.42192077636717 z" fill="none" stroke="rgb(255,0,0)" stroke-width="0.001mm" />
</svg>